<?xml version="1.0" encoding="iso-8859-1"?>
<!-- Generator: Adobe Illustrator 18.0.0, SVG Export Plug-In . SVG Version: 6.00 Build 0)  -->
<!DOCTYPE svg PUBLIC "-//W3C//DTD SVG 1.1//EN" "http://www.w3.org/Graphics/SVG/1.1/DTD/svg11.dtd">
<svg version="1.1" id="Capa_1" xmlns="http://www.w3.org/2000/svg" xmlns:xlink="http://www.w3.org/1999/xlink" x="0px" y="0px"
	 viewBox="0 0 198.962 198.962" style="enable-background:new 0 0 198.962 198.962;" xml:space="preserve">
<g>
	<g>
		<rect x="33.866" y="4" style="fill:#8C4646;" width="131.23" height="190.962"/>
		<path style="fill:#2E2140;" d="M169.096,198.962H29.866V0h139.23V198.962z M37.866,190.962h123.23V8H37.866V190.962z"/>
	</g>
	<g style="opacity:0.63;">
		<rect x="33.866" y="4" style="fill:#2E2140;" width="24.904" height="190.962"/>
	</g>
	<g>
		<g>
			<path style="fill:#F2E394;" d="M65.217,46.011c1.497-1.247,3.012-0.992,4.317,0.575l0.255,0.308l-1.454,1.211l-0.338-0.405
				c-0.582-0.7-1.083-0.732-1.572-0.325c-0.49,0.408-0.549,0.907,0.033,1.606c1.679,2.014,5-0.113,7.329,2.685
				c1.305,1.566,1.268,3.114-0.243,4.372c-1.511,1.258-3.039,1.015-4.344-0.551l-0.502-0.601l1.455-1.212l0.583,0.699
				c0.582,0.699,1.1,0.695,1.589,0.287c0.49-0.408,0.588-0.916,0.006-1.615c-1.678-2.015-5,0.112-7.329-2.686
				C63.697,48.793,63.72,47.257,65.217,46.011z"/>
		</g>
		<g>
			<path style="fill:#F2E394;" d="M77.408,46.848l0.073,1.317l2.023,3.35l-1.714,1.035l-6.588-10.907l1.713-1.035l2.871,4.752
				l-0.628-6.108l1.714-1.035l0.553,6.301l6.037,4.605l-1.761,1.064L77.408,46.848z"/>
		</g>
		<g>
			<path style="fill:#F2E394;" d="M84.562,40.583l2.538-1.051l0.696,1.681l-2.538,1.05l1.427,3.446l3.193-1.322l0.695,1.681
				l-5.042,2.087l-4.87-11.766l5.042-2.087l0.695,1.681l-3.193,1.322L84.562,40.583z"/>
		</g>
		<g>
			<path style="fill:#F2E394;" d="M89.35,33.067l5.993-1.531l0.45,1.763l-2.027,0.518l2.701,10.576l-1.938,0.495l-2.702-10.576
				l-2.027,0.518L89.35,33.067z"/>
		</g>
		<g>
			<path style="fill:#F2E394;" d="M106.009,38.161l0.179,1.683c0.214,2.027-0.677,3.292-2.632,3.499
				c-1.954,0.207-3.09-0.844-3.304-2.87l-0.697-6.587c-0.215-2.027,0.677-3.292,2.631-3.499c1.954-0.207,3.09,0.844,3.304,2.871
				l0.131,1.23l-1.882,0.199l-0.145-1.356c-0.095-0.905-0.529-1.207-1.162-1.14c-0.634,0.067-0.995,0.454-0.9,1.358l0.725,6.84
				c0.095,0.905,0.528,1.188,1.161,1.121c0.634-0.067,0.997-0.435,0.901-1.339l-0.192-1.809L106.009,38.161z"/>
		</g>
		<g>
			<path style="fill:#F2E394;" d="M111.076,42.896l-2.001-0.095l0.603-12.728l2,0.095l-0.259,5.455l2.273,0.107l0.259-5.454
				l2.036,0.096l-0.604,12.728l-2.037-0.097l0.26-5.455l-2.273-0.108L111.076,42.896z"/>
		</g>
		<g>
			<path style="fill:#F2E394;" d="M126.027,35.087l-0.093,0.446c-0.268,1.283-0.83,2.021-1.789,2.249
				c0.967,0.629,1.18,1.658,0.905,2.977l-0.212,1.016c-0.401,1.924-1.632,2.746-3.592,2.338l-3.082-0.642l2.599-12.472l2.957,0.616
				C125.751,32.037,126.428,33.163,126.027,35.087z M121.293,38.265l-0.798,3.831l1.122,0.234c0.659,0.138,1.078-0.091,1.271-1.018
				l0.227-1.086c0.241-1.159-0.059-1.593-0.95-1.778L121.293,38.265z M122.351,33.188l-0.687,3.296l0.766,0.159
				c0.731,0.152,1.244-0.076,1.451-1.073l0.146-0.695c0.185-0.891-0.036-1.346-0.731-1.491L122.351,33.188z"/>
		</g>
		<g>
			<path style="fill:#F2E394;" d="M129.914,36.353c0.719-1.907,2.135-2.618,3.974-1.925c1.839,0.692,2.433,2.161,1.714,4.068
				l-2.335,6.198c-0.72,1.908-2.135,2.619-3.974,1.926c-1.84-0.693-2.434-2.161-1.714-4.069L129.914,36.353z M129.406,43.376
				c-0.32,0.851-0.067,1.316,0.528,1.541c0.596,0.225,1.093,0.042,1.413-0.809l2.426-6.437c0.32-0.852,0.068-1.316-0.527-1.541
				c-0.597-0.225-1.093-0.042-1.414,0.809L129.406,43.376z"/>
		</g>
		<g>
			<path style="fill:#F2E394;" d="M139.194,40.169c1.001-1.776,2.508-2.264,4.221-1.3c1.713,0.964,2.076,2.506,1.076,4.282
				l-3.25,5.773c-1,1.776-2.508,2.264-4.221,1.3c-1.713-0.965-2.077-2.507-1.077-4.283L139.194,40.169z M137.625,47.035
				c-0.445,0.793-0.267,1.291,0.288,1.603c0.556,0.313,1.074,0.208,1.52-0.585l3.376-5.995c0.446-0.793,0.268-1.291-0.288-1.603
				c-0.555-0.313-1.073-0.208-1.521,0.585L137.625,47.035z"/>
		</g>
		<g>
			<path style="fill:#F2E394;" d="M147.16,50.708l-1.207,0.532l-2.423,3.073l-1.573-1.239l7.889-10.006l1.573,1.239l-3.438,4.36
				l5.495-2.737l1.572,1.24l-5.702,2.735l-2.186,7.271l-1.615-1.274L147.16,50.708z"/>
		</g>
	</g>
	<g>
		<g>
			<g>
				<path style="fill:#F2AE72;" d="M134.616,73.056c-3.295-1.844-7.569-0.474-9.551,3.063L83.422,150.53l-5.058,23.038
					l16.992-16.359L137.001,82.8C138.981,79.261,137.912,74.9,134.616,73.056"/>
			</g>
		</g>
		<g>
			<g>
				<path style="fill:#F2E1AC;" d="M83.293,150.182c0,0,9.73-2.718,12.452,6.969l-17.763,17.102L83.293,150.182z"/>
			</g>
		</g>
		<g>
			<g>
				
					<rect x="118.975" y="87.136" transform="matrix(0.8727 0.4883 -0.4883 0.8727 59.3805 -50.1329)" style="fill:#2E2140;" width="13.677" height="3.304"/>
			</g>
		</g>
		<g>
			<g>
				
					<rect x="121.699" y="82.268" transform="matrix(0.8726 0.4884 -0.4884 0.8726 57.3593 -52.0876)" style="fill:#2E2140;" width="13.677" height="3.304"/>
			</g>
		</g>
		<g>
			<g>
				
					<rect x="116.307" y="91.901" transform="matrix(0.8727 0.4883 -0.4883 0.8727 61.3686 -48.2236)" style="fill:#2E2140;" width="13.677" height="3.304"/>
			</g>
		</g>
		<g>
			<g>
				<path style="fill:#2E2140;" d="M83.872,152.119l-0.897-3.18c3.765-1.062,6.956-0.782,9.48,0.85
					c3.781,2.438,4.508,6.979,4.537,7.171l-3.266,0.495l1.631-0.247l-1.631,0.256c-0.006-0.034-0.557-3.299-3.085-4.913
					C88.95,151.487,86.674,151.327,83.872,152.119"/>
			</g>
		</g>
		<g>
			<g>
				
					<rect x="105.866" y="90.171" transform="matrix(0.8725 0.4886 -0.4886 0.8725 73.3772 -36.7515)" style="fill:#2E2140;" width="2.478" height="64.092"/>
			</g>
		</g>
		<g>
			<g>
				<path style="fill:#5C4B51;" d="M78.023,173.345l0.733,0.388l10.751-10.332c-2.408-2.727-5.513-3.907-8.294-4.361L78.023,173.345
					z"/>
			</g>
		</g>
		<g>
			<g>
				<polygon style="fill:#F2836B;" points="137.44,75.31 131.579,72.03 126.378,73.774 122.568,80.581 134.503,87.261 
					137.706,81.539 				"/>
			</g>
		</g>
		<g>
			<g>
				<path style="fill:#2E2140;" d="M75.584,178.54l6.279-28.604l41.762-74.622c2.421-4.326,7.714-5.985,11.799-3.699
					c4.085,2.287,5.44,7.666,3.02,11.992l-41.762,74.622L75.584,178.54z M84.984,151.122l-3.836,17.475l12.889-12.408l41.522-74.196
					c1.532-2.735,0.746-6.1-1.749-7.496c-2.495-1.397-5.773-0.306-7.305,2.43L84.984,151.122z"/>
			</g>
		</g>
	</g>
</g>
<g>
</g>
<g>
</g>
<g>
</g>
<g>
</g>
<g>
</g>
<g>
</g>
<g>
</g>
<g>
</g>
<g>
</g>
<g>
</g>
<g>
</g>
<g>
</g>
<g>
</g>
<g>
</g>
<g>
</g>
</svg>
